<mxfile host="localhost" modified="2020-05-10T16:33:57.757Z" agent="5.0 (Windows NT 10.0; Win64; x64) AppleWebKit/537.36 (KHTML, like Gecko) Code/1.45.0 Chrome/78.0.3904.130 Electron/7.2.4 Safari/537.36" etag="rP0ryiXbGfKxuY8kBXR9" version="13.0.9">
    <diagram id="FX7HpN7UGH8xanFEKAEU" name="Page-1">
        <mxGraphModel dx="970" dy="443" grid="1" gridSize="10" guides="1" tooltips="1" connect="1" arrows="1" fold="1" page="1" pageScale="1" pageWidth="850" pageHeight="1100" math="0" shadow="0">
            <root>
                <mxCell id="0"/>
                <mxCell id="1" parent="0"/>
                <mxCell id="bgOZFK84LD9_vXl-W8QX-1" value="" style="ellipse;whiteSpace=wrap;html=1;" parent="1" vertex="1">
                    <mxGeometry x="30" y="230" width="780" height="100" as="geometry"/>
                </mxCell>
                <mxCell id="bgOZFK84LD9_vXl-W8QX-2" value="" style="shape=process;whiteSpace=wrap;html=1;backgroundOutline=1;" parent="1" vertex="1">
                    <mxGeometry x="150" y="250" width="120" height="60" as="geometry"/>
                </mxCell>
                <mxCell id="bgOZFK84LD9_vXl-W8QX-3" value="" style="shape=process;whiteSpace=wrap;html=1;backgroundOutline=1;" parent="1" vertex="1">
                    <mxGeometry x="490" y="250" width="120" height="60" as="geometry"/>
                </mxCell>
                <mxCell id="bgOZFK84LD9_vXl-W8QX-4" value="" style="ellipse;whiteSpace=wrap;html=1;" parent="1" vertex="1">
                    <mxGeometry x="20" y="450" width="810" height="130" as="geometry"/>
                </mxCell>
                <mxCell id="bgOZFK84LD9_vXl-W8QX-5" value="" style="shape=process;whiteSpace=wrap;html=1;backgroundOutline=1;" parent="1" vertex="1">
                    <mxGeometry x="160" y="490" width="120" height="60" as="geometry"/>
                </mxCell>
                <mxCell id="bgOZFK84LD9_vXl-W8QX-6" value="" style="shape=process;whiteSpace=wrap;html=1;backgroundOutline=1;" parent="1" vertex="1">
                    <mxGeometry x="520" y="485" width="120" height="60" as="geometry"/>
                </mxCell>
                <mxCell id="bgOZFK84LD9_vXl-W8QX-9" value="&lt;font style=&quot;font-size: 14px&quot;&gt;site (api)&lt;br&gt;&lt;/font&gt;" style="text;html=1;strokeColor=none;fillColor=none;align=center;verticalAlign=middle;whiteSpace=wrap;rounded=0;" parent="1" vertex="1">
                    <mxGeometry x="170" y="270" width="80" height="20" as="geometry"/>
                </mxCell>
                <mxCell id="bgOZFK84LD9_vXl-W8QX-10" value="&lt;font style=&quot;font-size: 14px&quot;&gt;game server&lt;br&gt;&lt;/font&gt;" style="text;html=1;strokeColor=none;fillColor=none;align=center;verticalAlign=middle;whiteSpace=wrap;rounded=0;" parent="1" vertex="1">
                    <mxGeometry x="500" y="270" width="100" height="20" as="geometry"/>
                </mxCell>
                <mxCell id="bgOZFK84LD9_vXl-W8QX-11" value="&lt;font style=&quot;font-size: 14px&quot;&gt;web app&lt;/font&gt;" style="text;html=1;strokeColor=none;fillColor=none;align=center;verticalAlign=middle;whiteSpace=wrap;rounded=0;" parent="1" vertex="1">
                    <mxGeometry x="180" y="510" width="80" height="20" as="geometry"/>
                </mxCell>
                <mxCell id="bgOZFK84LD9_vXl-W8QX-12" value="&lt;font style=&quot;font-size: 14px&quot;&gt;admin app&lt;/font&gt;" style="text;html=1;strokeColor=none;fillColor=none;align=center;verticalAlign=middle;whiteSpace=wrap;rounded=0;" parent="1" vertex="1">
                    <mxGeometry x="540" y="505" width="80" height="20" as="geometry"/>
                </mxCell>
                <mxCell id="bgOZFK84LD9_vXl-W8QX-14" value="&lt;font style=&quot;font-size: 17px&quot;&gt;FRONTEND&lt;/font&gt;" style="text;html=1;strokeColor=none;fillColor=none;align=center;verticalAlign=middle;whiteSpace=wrap;rounded=0;" parent="1" vertex="1">
                    <mxGeometry x="380" y="550" width="40" height="20" as="geometry"/>
                </mxCell>
                <mxCell id="bgOZFK84LD9_vXl-W8QX-15" value="&lt;font style=&quot;font-size: 17px&quot;&gt;BACKEND&lt;br&gt;&lt;/font&gt;" style="text;html=1;strokeColor=none;fillColor=none;align=center;verticalAlign=middle;whiteSpace=wrap;rounded=0;" parent="1" vertex="1">
                    <mxGeometry x="370" y="310" width="40" height="20" as="geometry"/>
                </mxCell>
                <mxCell id="_h-OwVBiazQGRYQUz6Yw-3" value="" style="shape=cylinder;whiteSpace=wrap;html=1;boundedLbl=1;backgroundOutline=1;" parent="1" vertex="1">
                    <mxGeometry x="370" y="50" width="60" height="80" as="geometry"/>
                </mxCell>
                <mxCell id="_h-OwVBiazQGRYQUz6Yw-4" value="" style="endArrow=classic;html=1;entryX=0;entryY=0.7;entryDx=0;entryDy=0;exitX=0.25;exitY=0;exitDx=0;exitDy=0;startArrow=classic;startFill=1;endFill=1;jumpStyle=none;dashed=1;strokeColor=#000000;fillColor=#fa6800;" parent="1" source="bgOZFK84LD9_vXl-W8QX-2" target="_h-OwVBiazQGRYQUz6Yw-3" edge="1">
                    <mxGeometry width="50" height="50" relative="1" as="geometry">
                        <mxPoint x="170" y="210" as="sourcePoint"/>
                        <mxPoint x="220" y="160" as="targetPoint"/>
                    </mxGeometry>
                </mxCell>
                <mxCell id="_h-OwVBiazQGRYQUz6Yw-5" value="DB" style="text;html=1;strokeColor=none;fillColor=none;align=center;verticalAlign=middle;whiteSpace=wrap;rounded=0;" parent="1" vertex="1">
                    <mxGeometry x="380" y="90" width="40" height="20" as="geometry"/>
                </mxCell>
                <mxCell id="_h-OwVBiazQGRYQUz6Yw-6" value="Full access" style="text;html=1;strokeColor=none;fillColor=none;align=center;verticalAlign=middle;whiteSpace=wrap;rounded=0;" parent="1" vertex="1">
                    <mxGeometry x="240" y="160" width="40" height="20" as="geometry"/>
                </mxCell>
                <mxCell id="_h-OwVBiazQGRYQUz6Yw-7" value="" style="endArrow=classic;html=1;entryX=1;entryY=0.95;entryDx=0;entryDy=0;entryPerimeter=0;exitX=0.4;exitY=0;exitDx=0;exitDy=0;exitPerimeter=0;startArrow=classic;startFill=1;endFill=1;dashed=1;" parent="1" source="bgOZFK84LD9_vXl-W8QX-3" target="_h-OwVBiazQGRYQUz6Yw-3" edge="1">
                    <mxGeometry width="50" height="50" relative="1" as="geometry">
                        <mxPoint x="430" y="195" as="sourcePoint"/>
                        <mxPoint x="480" y="145" as="targetPoint"/>
                    </mxGeometry>
                </mxCell>
                <mxCell id="_h-OwVBiazQGRYQUz6Yw-9" value="Limited access" style="text;html=1;strokeColor=none;fillColor=none;align=center;verticalAlign=middle;whiteSpace=wrap;rounded=0;" parent="1" vertex="1">
                    <mxGeometry x="472.5" y="150" width="40" height="20" as="geometry"/>
                </mxCell>
                <mxCell id="_h-OwVBiazQGRYQUz6Yw-12" value="" style="endArrow=classic;html=1;entryX=0.5;entryY=1;entryDx=0;entryDy=0;" parent="1" target="bgOZFK84LD9_vXl-W8QX-3" edge="1">
                    <mxGeometry width="50" height="50" relative="1" as="geometry">
                        <mxPoint x="580" y="480" as="sourcePoint"/>
                        <mxPoint x="600" y="380" as="targetPoint"/>
                    </mxGeometry>
                </mxCell>
                <mxCell id="_h-OwVBiazQGRYQUz6Yw-13" value="Replay a game" style="text;html=1;strokeColor=none;fillColor=none;align=center;verticalAlign=middle;whiteSpace=wrap;rounded=0;" parent="1" vertex="1">
                    <mxGeometry x="570" y="390" width="60" height="20" as="geometry"/>
                </mxCell>
                <mxCell id="_h-OwVBiazQGRYQUz6Yw-17" value="" style="endArrow=classic;startArrow=classic;html=1;entryX=0.75;entryY=1;entryDx=0;entryDy=0;exitX=0.5;exitY=0;exitDx=0;exitDy=0;" parent="1" source="bgOZFK84LD9_vXl-W8QX-6" target="bgOZFK84LD9_vXl-W8QX-2" edge="1">
                    <mxGeometry width="50" height="50" relative="1" as="geometry">
                        <mxPoint x="235" y="395" as="sourcePoint"/>
                        <mxPoint x="285" y="345" as="targetPoint"/>
                    </mxGeometry>
                </mxCell>
                <mxCell id="_h-OwVBiazQGRYQUz6Yw-18" value="" style="endArrow=classic;startArrow=classic;html=1;entryX=0.5;entryY=1;entryDx=0;entryDy=0;" parent="1" target="bgOZFK84LD9_vXl-W8QX-2" edge="1">
                    <mxGeometry width="50" height="50" relative="1" as="geometry">
                        <mxPoint x="220" y="490" as="sourcePoint"/>
                        <mxPoint x="260" y="450" as="targetPoint"/>
                    </mxGeometry>
                </mxCell>
                <mxCell id="_h-OwVBiazQGRYQUz6Yw-19" value="" style="endArrow=classic;startArrow=classic;html=1;entryX=0.5;entryY=1;entryDx=0;entryDy=0;" parent="1" target="bgOZFK84LD9_vXl-W8QX-3" edge="1">
                    <mxGeometry width="50" height="50" relative="1" as="geometry">
                        <mxPoint x="245" y="490" as="sourcePoint"/>
                        <mxPoint x="295" y="440" as="targetPoint"/>
                    </mxGeometry>
                </mxCell>
                <mxCell id="_h-OwVBiazQGRYQUz6Yw-20" value="Site stuff&lt;br&gt;Auth stuff" style="text;html=1;strokeColor=none;fillColor=none;align=center;verticalAlign=middle;whiteSpace=wrap;rounded=0;" parent="1" vertex="1">
                    <mxGeometry x="145" y="340" width="70" height="50" as="geometry"/>
                </mxCell>
                <mxCell id="_h-OwVBiazQGRYQUz6Yw-21" value="Game metadata" style="text;html=1;strokeColor=none;fillColor=none;align=center;verticalAlign=middle;whiteSpace=wrap;rounded=0;" parent="1" vertex="1">
                    <mxGeometry x="150" y="390" width="70" height="20" as="geometry"/>
                </mxCell>
                <mxCell id="_h-OwVBiazQGRYQUz6Yw-22" value="Admin stuff&lt;br&gt;Auth stuff" style="text;html=1;strokeColor=none;fillColor=none;align=center;verticalAlign=middle;whiteSpace=wrap;rounded=0;" parent="1" vertex="1">
                    <mxGeometry x="465" y="410" width="70" height="20" as="geometry"/>
                </mxCell>
                <mxCell id="_h-OwVBiazQGRYQUz6Yw-23" value="No access to user data!!" style="text;html=1;strokeColor=none;fillColor=none;align=center;verticalAlign=middle;whiteSpace=wrap;rounded=0;" parent="1" vertex="1">
                    <mxGeometry x="492.5" y="190" width="95" height="20" as="geometry"/>
                </mxCell>
                <mxCell id="_h-OwVBiazQGRYQUz6Yw-26" value="Gameplay" style="text;html=1;strokeColor=none;fillColor=none;align=center;verticalAlign=middle;whiteSpace=wrap;rounded=0;" parent="1" vertex="1">
                    <mxGeometry x="290" y="410" width="40" height="20" as="geometry"/>
                </mxCell>
                <mxCell id="_h-OwVBiazQGRYQUz6Yw-27" value="" style="endArrow=classic;startArrow=classic;html=1;entryX=0.25;entryY=0;entryDx=0;entryDy=0;" parent="1" source="bgOZFK84LD9_vXl-W8QX-2" target="bgOZFK84LD9_vXl-W8QX-3" edge="1">
                    <mxGeometry width="50" height="50" relative="1" as="geometry">
                        <mxPoint x="20" y="650" as="sourcePoint"/>
                        <mxPoint x="70" y="600" as="targetPoint"/>
                        <Array as="points">
                            <mxPoint x="400" y="110"/>
                        </Array>
                    </mxGeometry>
                </mxCell>
                <mxCell id="_h-OwVBiazQGRYQUz6Yw-28" value="Start game&lt;br&gt;Move notification&lt;br&gt;End game&lt;br&gt;(&lt;b&gt;GameNotification&lt;/b&gt;)" style="text;html=1;strokeColor=none;fillColor=none;align=center;verticalAlign=middle;whiteSpace=wrap;rounded=0;" parent="1" vertex="1">
                    <mxGeometry x="340" y="160" width="100" height="20" as="geometry"/>
                </mxCell>
                <mxCell id="_h-OwVBiazQGRYQUz6Yw-30" value="" style="rounded=1;whiteSpace=wrap;html=1;" parent="1" vertex="1">
                    <mxGeometry x="90" y="260" width="80" height="40" as="geometry"/>
                </mxCell>
                <mxCell id="_h-OwVBiazQGRYQUz6Yw-32" value="Websockets" style="text;html=1;strokeColor=none;fillColor=none;align=center;verticalAlign=middle;whiteSpace=wrap;rounded=0;" parent="1" vertex="1">
                    <mxGeometry x="110" y="270" width="40" height="20" as="geometry"/>
                </mxCell>
                <mxCell id="_h-OwVBiazQGRYQUz6Yw-33" value="" style="endArrow=classic;html=1;exitX=0.25;exitY=1;exitDx=0;exitDy=0;entryX=0.2;entryY=0.083;entryDx=0;entryDy=0;entryPerimeter=0;dashed=1;" parent="1" source="_h-OwVBiazQGRYQUz6Yw-30" target="bgOZFK84LD9_vXl-W8QX-5" edge="1">
                    <mxGeometry width="50" height="50" relative="1" as="geometry">
                        <mxPoint x="20" y="650" as="sourcePoint"/>
                        <mxPoint x="70" y="600" as="targetPoint"/>
                        <Array as="points">
                            <mxPoint x="110" y="410"/>
                        </Array>
                    </mxGeometry>
                </mxCell>
                <mxCell id="_h-OwVBiazQGRYQUz6Yw-34" value="New chat messages" style="text;html=1;strokeColor=none;fillColor=none;align=center;verticalAlign=middle;whiteSpace=wrap;rounded=0;" parent="1" vertex="1">
                    <mxGeometry x="10" y="330" width="110" height="20" as="geometry"/>
                </mxCell>
                <mxCell id="_h-OwVBiazQGRYQUz6Yw-35" value="Game updated notification" style="text;html=1;strokeColor=none;fillColor=none;align=center;verticalAlign=middle;whiteSpace=wrap;rounded=0;" parent="1" vertex="1">
                    <mxGeometry x="20" y="365" width="90" height="20" as="geometry"/>
                </mxCell>
                <mxCell id="_h-OwVBiazQGRYQUz6Yw-44" value="" style="rounded=1;whiteSpace=wrap;html=1;" parent="1" vertex="1">
                    <mxGeometry x="660" y="10" width="160" height="60" as="geometry"/>
                </mxCell>
                <mxCell id="_h-OwVBiazQGRYQUz6Yw-45" value="&lt;font&gt;&lt;span style=&quot;font-size: 14px&quot;&gt;site-lib&lt;/span&gt;&lt;br&gt;&lt;font style=&quot;font-size: 12px&quot;&gt;shared dependency&lt;/font&gt;&lt;br&gt;&lt;/font&gt;" style="text;html=1;strokeColor=none;fillColor=none;align=center;verticalAlign=middle;whiteSpace=wrap;rounded=0;" parent="1" vertex="1">
                    <mxGeometry x="670" y="30" width="140" height="20" as="geometry"/>
                </mxCell>
                <mxCell id="_h-OwVBiazQGRYQUz6Yw-46" value="" style="endArrow=classic;html=1;exitX=0;exitY=0.3;exitDx=0;exitDy=0;entryX=0.4;entryY=-0.45;entryDx=0;entryDy=0;entryPerimeter=0;" parent="1" source="_h-OwVBiazQGRYQUz6Yw-3" target="_h-OwVBiazQGRYQUz6Yw-32" edge="1">
                    <mxGeometry width="50" height="50" relative="1" as="geometry">
                        <mxPoint x="180" y="120" as="sourcePoint"/>
                        <mxPoint x="230" y="70" as="targetPoint"/>
                        <Array as="points">
                            <mxPoint x="230" y="150"/>
                        </Array>
                    </mxGeometry>
                </mxCell>
                <mxCell id="xbBPJkQrCDf5sY5UC59e-1" value="NPM" style="ellipse;shape=cloud;whiteSpace=wrap;html=1;" parent="1" vertex="1">
                    <mxGeometry x="690" y="110" width="120" height="80" as="geometry"/>
                </mxCell>
                <mxCell id="xbBPJkQrCDf5sY5UC59e-2" value="" style="endArrow=classic;html=1;exitX=0.31;exitY=0.8;exitDx=0;exitDy=0;exitPerimeter=0;entryX=0.75;entryY=0;entryDx=0;entryDy=0;dashed=1;endFill=1;" parent="1" source="xbBPJkQrCDf5sY5UC59e-1" target="bgOZFK84LD9_vXl-W8QX-3" edge="1">
                    <mxGeometry width="50" height="50" relative="1" as="geometry">
                        <mxPoint x="750" y="230" as="sourcePoint"/>
                        <mxPoint x="800" y="180" as="targetPoint"/>
                    </mxGeometry>
                </mxCell>
                <mxCell id="xbBPJkQrCDf5sY5UC59e-3" value="Game logic" style="text;html=1;strokeColor=none;fillColor=none;align=center;verticalAlign=middle;whiteSpace=wrap;rounded=0;" parent="1" vertex="1">
                    <mxGeometry x="640" y="200" width="100" height="20" as="geometry"/>
                </mxCell>
                <mxCell id="xbBPJkQrCDf5sY5UC59e-4" value="CDN" style="ellipse;shape=cloud;whiteSpace=wrap;html=1;" parent="1" vertex="1">
                    <mxGeometry x="30" y="640" width="120" height="80" as="geometry"/>
                </mxCell>
                <mxCell id="xbBPJkQrCDf5sY5UC59e-5" value="" style="endArrow=classic;html=1;dashed=1;" parent="1" target="bgOZFK84LD9_vXl-W8QX-5" edge="1">
                    <mxGeometry width="50" height="50" relative="1" as="geometry">
                        <mxPoint x="120" y="650" as="sourcePoint"/>
                        <mxPoint x="170" y="600" as="targetPoint"/>
                    </mxGeometry>
                </mxCell>
                <mxCell id="xbBPJkQrCDf5sY5UC59e-6" value="Game UI" style="text;html=1;strokeColor=none;fillColor=none;align=center;verticalAlign=middle;whiteSpace=wrap;rounded=0;" parent="1" vertex="1">
                    <mxGeometry x="85" y="600" width="75" height="20" as="geometry"/>
                </mxCell>
                <mxCell id="xbBPJkQrCDf5sY5UC59e-11" value="" style="endArrow=classic;html=1;dashed=1;" parent="1" edge="1">
                    <mxGeometry width="50" height="50" relative="1" as="geometry">
                        <mxPoint x="550" y="619" as="sourcePoint"/>
                        <mxPoint x="725" y="619" as="targetPoint"/>
                    </mxGeometry>
                </mxCell>
                <mxCell id="xbBPJkQrCDf5sY5UC59e-12" value="READ" style="text;html=1;strokeColor=none;fillColor=none;align=center;verticalAlign=middle;whiteSpace=wrap;rounded=0;" parent="1" vertex="1">
                    <mxGeometry x="720" y="610" width="80" height="20" as="geometry"/>
                </mxCell>
                <mxCell id="xbBPJkQrCDf5sY5UC59e-15" value="" style="endArrow=classic;html=1;" parent="1" edge="1">
                    <mxGeometry width="50" height="50" relative="1" as="geometry">
                        <mxPoint x="545" y="670" as="sourcePoint"/>
                        <mxPoint x="725" y="670" as="targetPoint"/>
                    </mxGeometry>
                </mxCell>
                <mxCell id="xbBPJkQrCDf5sY5UC59e-16" value="WRITE" style="text;html=1;strokeColor=none;fillColor=none;align=center;verticalAlign=middle;whiteSpace=wrap;rounded=0;" parent="1" vertex="1">
                    <mxGeometry x="460" y="660" width="80" height="20" as="geometry"/>
                </mxCell>
                <mxCell id="xbBPJkQrCDf5sY5UC59e-18" value="" style="endArrow=classic;startArrow=classic;html=1;" parent="1" edge="1">
                    <mxGeometry width="50" height="50" relative="1" as="geometry">
                        <mxPoint x="540" y="720" as="sourcePoint"/>
                        <mxPoint x="720" y="720" as="targetPoint"/>
                    </mxGeometry>
                </mxCell>
                <mxCell id="xbBPJkQrCDf5sY5UC59e-19" value="READ / WRITE" style="text;html=1;strokeColor=none;fillColor=none;align=center;verticalAlign=middle;whiteSpace=wrap;rounded=0;" parent="1" vertex="1">
                    <mxGeometry x="465" y="710" width="62.5" height="20" as="geometry"/>
                </mxCell>
            </root>
        </mxGraphModel>
    </diagram>
</mxfile>